<svg width="250" height="38" viewBox="0 0 250 38" fill="none" xmlns="http://www.w3.org/2000/svg">
<path d="M0.725708 9.97127C0.725708 19.4492 0.783766 20.8571 1.30629 22.9472C2.80128 28.8401 7.31529 33.8331 12.9179 35.749C14.8773 36.4167 16.2998 36.6489 18.5785 36.6489C20.8573 36.6489 22.2797 36.4167 24.2392 35.749C29.8418 33.8331 34.3558 28.8401 35.8508 22.9472C36.3733 20.8571 36.4314 19.4492 36.4314 9.97127V0.725529H31.8593H27.2873V9.82612C27.2727 14.8481 27.2437 19.2025 27.2002 19.5218C27.1566 19.8411 26.997 20.5523 26.8373 21.1184C26.0245 23.9197 24.0215 26.0533 21.2202 27.1129C20.3783 27.4322 20.0155 27.4903 18.5785 27.4903C17.1416 27.4903 16.7787 27.4322 15.9369 27.1129C13.1356 26.0533 11.1326 23.9197 10.3198 21.1184C10.1601 20.5523 10.0005 19.8411 9.95693 19.5218C9.91339 19.2025 9.88436 14.8481 9.86985 9.82612V0.725529H5.29778H0.725708V9.97127Z" fill="white"/>
<path d="M178.819 0.943119C174.726 1.55273 171.155 3.41058 168.296 6.40057C161.677 13.3385 161.677 24.2534 168.296 31.1913C171.257 34.2975 174.943 36.1553 179.298 36.7214C184.828 37.4471 190.604 35.357 194.567 31.1913C201.185 24.2534 201.185 13.3385 194.567 6.40057C190.474 2.10428 184.61 0.0722466 178.819 0.943119ZM183.666 10.305C185.278 10.7114 186.41 11.379 187.687 12.6273C189.429 14.34 190.285 16.3866 190.285 18.796C190.285 20.2764 190.067 21.2054 189.385 22.6423C188.921 23.6293 188.572 24.0938 187.687 24.9646C187.063 25.5887 186.192 26.2564 185.684 26.5322C183.754 27.5482 181.33 27.8385 179.196 27.2869C177.585 26.8805 176.453 26.2129 175.175 24.9646C173.434 23.2519 172.577 21.2054 172.577 18.796C172.577 17.3155 172.795 16.3866 173.477 14.9496C174.537 12.7144 176.7 10.9436 179.138 10.305C180.546 9.94211 182.244 9.94211 183.666 10.305Z" fill="white"/>
<path d="M228.023 0.943424C221.259 1.94493 215.555 7.03952 213.581 13.8613C212.841 16.4304 212.783 17.3013 212.783 27.3889V36.7217H217.355H221.927V27.3889C221.927 17.0836 221.941 16.9239 222.856 15.0225C225.004 10.523 229.808 8.65063 234.046 10.6681C235.875 11.539 237.327 13.034 238.27 15.0225C239.184 16.9239 239.199 17.0836 239.199 27.3889V36.7217H243.771H248.343V27.3889C248.343 17.3013 248.285 16.4304 247.545 13.8613C245.019 5.15263 236.717 -0.348366 228.023 0.943424Z" fill="white"/>
<path d="M65.533 1.07394C63.2833 1.45131 61.5706 2.01738 59.8143 2.98985C54.6036 5.84921 51.0911 11.0744 50.3799 17.0544C50.2783 17.8527 50.2202 21.9458 50.2202 27.6064V36.8667H54.7923H59.3498L59.3934 27.0259L59.4369 17.1995L59.8288 16.14C60.7287 13.7161 62.2818 11.9163 64.3283 10.9148C65.8233 10.189 66.97 9.95681 68.6246 10.0439C72.1081 10.2616 74.982 12.5259 76.3173 16.14L76.7092 17.1995L76.7527 27.0259L76.7963 36.8667H81.3538H85.9259V27.6064C85.9259 18.143 85.8678 16.7351 85.3453 14.645C83.8503 8.75211 79.3218 3.7446 73.7337 1.8432C71.2372 0.986847 67.8844 0.682041 65.533 1.07394Z" fill="white"/>
<path d="M100.295 19.667V36.8667H104.867H109.439V19.667V2.46732H104.867H100.295V19.667Z" fill="white"/>
<path d="M123.373 6.96682V11.4663L130.108 11.4953L136.843 11.5389L129.6 24.0939C125.623 31.0028 122.357 36.6925 122.357 36.7506C122.357 36.8232 128.86 36.8667 136.799 36.8667H151.241V32.3672V27.8677L143.998 27.8387L136.756 27.7951L143.998 15.2401C147.975 8.33118 151.241 2.64149 151.241 2.56892C151.241 2.51086 144.971 2.46732 137.307 2.46732H123.373V6.96682Z" fill="white"/>
</svg>
