<svg width="279" height="47" viewBox="0 0 279 47" fill="none" xmlns="http://www.w3.org/2000/svg">
<path d="M4.41775 15.5624H9.87658V37.2278C9.87658 38.7389 9.59954 40.017 9.04548 41.0622C8.49141 42.1073 7.69179 42.9007 6.64661 43.4421C5.60144 43.9836 4.3359 44.2544 2.84999 44.2544C2.38407 44.2544 1.93074 44.2292 1.49001 44.1788C1.03668 44.1284 0.570757 44.0466 0.0922435 43.9332L0.111132 39.7588C0.413351 39.8092 0.709274 39.847 0.9989 39.8722C1.27593 39.91 1.55926 39.9288 1.84889 39.9288C2.41555 39.9288 2.88777 39.8344 3.26554 39.6455C3.64332 39.4566 3.92665 39.1607 4.11553 38.7577C4.31701 38.3674 4.41775 37.8574 4.41775 37.2278V15.5624ZM3.98331 10.2358C3.98331 9.44252 4.26035 8.78771 4.81441 8.27142C5.38107 7.75513 6.12403 7.49698 7.04328 7.49698C7.97512 7.49698 8.71807 7.75513 9.27214 8.27142C9.82621 8.78771 10.1032 9.44252 10.1032 10.2358C10.1032 11.0292 9.82621 11.684 9.27214 12.2003C8.71807 12.7166 7.97512 12.9747 7.04328 12.9747C6.12403 12.9747 5.38107 12.7166 4.81441 12.2003C4.26035 11.684 3.98331 11.0292 3.98331 10.2358ZM13.3332 25.989V25.5923C13.3332 24.0938 13.5473 22.715 13.9754 21.4557C14.4036 20.1839 15.0269 19.082 15.8454 18.1502C16.6639 17.2184 17.6713 16.4943 18.8676 15.978C20.0639 15.4491 21.4365 15.1847 22.9853 15.1847C24.5342 15.1847 25.9131 15.4491 27.1219 15.978C28.3308 16.4943 29.3445 17.2184 30.163 18.1502C30.9941 19.082 31.6237 20.1839 32.0519 21.4557C32.48 22.715 32.6941 24.0938 32.6941 25.5923V25.989C32.6941 27.4749 32.48 28.8538 32.0519 30.1256C31.6237 31.3849 30.9941 32.4867 30.163 33.4311C29.3445 34.363 28.3371 35.087 27.1408 35.6033C25.9445 36.1196 24.572 36.3778 23.0231 36.3778C21.4742 36.3778 20.0954 36.1196 18.8865 35.6033C17.6902 35.087 16.6765 34.363 15.8454 33.4311C15.0269 32.4867 14.4036 31.3849 13.9754 30.1256C13.5473 28.8538 13.3332 27.4749 13.3332 25.989ZM18.7731 25.5923V25.989C18.7731 26.8453 18.8487 27.6449 18.9998 28.3879C19.1509 29.1308 19.3902 29.7856 19.7176 30.3523C20.0576 30.9064 20.4983 31.3408 21.0398 31.6556C21.5813 31.9704 22.2424 32.1278 23.0231 32.1278C23.7786 32.1278 24.4272 31.9704 24.9686 31.6556C25.5101 31.3408 25.9445 30.9064 26.272 30.3523C26.5994 29.7856 26.8386 29.1308 26.9897 28.3879C27.1534 27.6449 27.2353 26.8453 27.2353 25.989V25.5923C27.2353 24.7612 27.1534 23.9805 26.9897 23.2501C26.8386 22.5072 26.5931 21.8524 26.2531 21.2857C25.9257 20.7065 25.4912 20.2531 24.9497 19.9257C24.4083 19.5983 23.7535 19.4346 22.9853 19.4346C22.2172 19.4346 21.5624 19.5983 21.0209 19.9257C20.492 20.2531 20.0576 20.7065 19.7176 21.2857C19.3902 21.8524 19.1509 22.5072 18.9998 23.2501C18.8487 23.9805 18.7731 24.7612 18.7731 25.5923ZM47.0684 31.3912V22.2868C47.0684 21.632 46.9614 21.0716 46.7473 20.6057C46.5332 20.1272 46.1995 19.7557 45.7462 19.4913C45.3054 19.2269 44.7325 19.0946 44.0273 19.0946C43.4229 19.0946 42.9003 19.2017 42.4596 19.4157C42.0188 19.6172 41.6788 19.9131 41.4396 20.3035C41.2003 20.6813 41.0807 21.1283 41.0807 21.6446H35.6407C35.6407 20.7757 35.8422 19.9509 36.2452 19.1702C36.6481 18.3895 37.2337 17.7032 38.0018 17.1113C38.77 16.5069 39.6829 16.0347 40.7407 15.6947C41.811 15.3547 43.0073 15.1847 44.3295 15.1847C45.9162 15.1847 47.3265 15.4491 48.5606 15.978C49.7947 16.5069 50.7643 17.3002 51.4694 18.358C52.1872 19.4157 52.5461 20.7379 52.5461 22.3246V31.0701C52.5461 32.1908 52.6154 33.11 52.7539 33.8278C52.8924 34.533 53.0939 35.15 53.3583 35.6789V36H47.8617C47.5973 35.4459 47.3958 34.7533 47.2573 33.9222C47.1313 33.0786 47.0684 32.2349 47.0684 31.3912ZM47.7862 23.5524L47.8239 26.6312H44.7829C44.0651 26.6312 43.4418 26.7131 42.9129 26.8768C42.384 27.0405 41.9496 27.2734 41.6096 27.5756C41.2696 27.8653 41.0177 28.2053 40.854 28.5956C40.7029 28.986 40.6273 29.4141 40.6273 29.8801C40.6273 30.346 40.7344 30.7678 40.9485 31.1456C41.1625 31.5108 41.471 31.8004 41.874 32.0145C42.277 32.216 42.7492 32.3167 43.2907 32.3167C44.1092 32.3167 44.8206 32.153 45.4251 31.8256C46.0295 31.4982 46.4954 31.0952 46.8228 30.6167C47.1628 30.1382 47.3391 29.6849 47.3517 29.2567L48.7873 31.5612C48.5858 32.0775 48.3087 32.6126 47.9562 33.1667C47.6162 33.7208 47.1817 34.2434 46.6528 34.7345C46.124 35.213 45.488 35.6096 44.7451 35.9244C44.0021 36.2267 43.1207 36.3778 42.1007 36.3778C40.8036 36.3778 39.6262 36.1196 38.5685 35.6033C37.5233 35.0745 36.6922 34.3504 36.0752 33.4311C35.4707 32.4993 35.1685 31.4415 35.1685 30.2578C35.1685 29.1875 35.37 28.2368 35.773 27.4057C36.1759 26.5745 36.7678 25.8757 37.5485 25.309C38.3418 24.7298 39.3303 24.2953 40.514 24.0057C41.6977 23.7035 43.0703 23.5524 44.6317 23.5524H47.7862ZM55.8705 25.989V25.5923C55.8705 24.0938 56.0846 22.715 56.5127 21.4557C56.9409 20.1839 57.5642 19.082 58.3827 18.1502C59.2012 17.2184 60.2086 16.4943 61.4049 15.978C62.6012 15.4491 63.9738 15.1847 65.5226 15.1847C67.0715 15.1847 68.4504 15.4491 69.6592 15.978C70.8681 16.4943 71.8818 17.2184 72.7003 18.1502C73.5314 19.082 74.161 20.1839 74.5892 21.4557C75.0173 22.715 75.2314 24.0938 75.2314 25.5923V25.989C75.2314 27.4749 75.0173 28.8538 74.5892 30.1256C74.161 31.3849 73.5314 32.4867 72.7003 33.4311C71.8818 34.363 70.8744 35.087 69.6781 35.6033C68.4819 36.1196 67.1093 36.3778 65.5604 36.3778C64.0115 36.3778 62.6327 36.1196 61.4238 35.6033C60.2275 35.087 59.2138 34.363 58.3827 33.4311C57.5642 32.4867 56.9409 31.3849 56.5127 30.1256C56.0846 28.8538 55.8705 27.4749 55.8705 25.989ZM61.3105 25.5923V25.989C61.3105 26.8453 61.386 27.6449 61.5371 28.3879C61.6882 29.1308 61.9275 29.7856 62.2549 30.3523C62.5949 30.9064 63.0356 31.3408 63.5771 31.6556C64.1186 31.9704 64.7797 32.1278 65.5604 32.1278C66.316 32.1278 66.9645 31.9704 67.5059 31.6556C68.0474 31.3408 68.4819 30.9064 68.8093 30.3523C69.1367 29.7856 69.3759 29.1308 69.527 28.3879C69.6907 27.6449 69.7726 26.8453 69.7726 25.989V25.5923C69.7726 24.7612 69.6907 23.9805 69.527 23.2501C69.3759 22.5072 69.1304 21.8524 68.7904 21.2857C68.463 20.7065 68.0285 20.2531 67.487 19.9257C66.9456 19.5983 66.2908 19.4346 65.5226 19.4346C64.7545 19.4346 64.0997 19.5983 63.5582 19.9257C63.0293 20.2531 62.5949 20.7065 62.2549 21.2857C61.9275 21.8524 61.6882 22.5072 61.5371 23.2501C61.386 23.9805 61.3105 24.7612 61.3105 25.5923ZM91.5134 15.5624H96.4434V35.32C96.4434 37.1837 96.0278 38.764 95.1967 40.0611C94.3782 41.3707 93.2323 42.3592 91.759 43.0266C90.2857 43.7066 88.5731 44.0466 86.6213 44.0466C85.765 44.0466 84.8583 43.9332 83.9013 43.7066C82.9569 43.4799 82.0502 43.1273 81.1813 42.6488C80.3251 42.1703 79.6073 41.5659 79.028 40.8355L81.4269 37.6244C82.0565 38.3548 82.7869 38.9214 83.618 39.3244C84.4491 39.74 85.3683 39.9477 86.3757 39.9477C87.3579 39.9477 88.189 39.7651 88.869 39.4C89.549 39.0474 90.0716 38.5248 90.4368 37.8322C90.802 37.1522 90.9846 36.3274 90.9846 35.3578V20.2846L91.5134 15.5624ZM77.7625 26.0268V25.6301C77.7625 24.0687 77.9514 22.652 78.3291 21.3802C78.7195 20.0957 79.2673 18.9939 79.9725 18.0746C80.6902 17.1554 81.5591 16.4439 82.5791 15.9402C83.5991 15.4365 84.7513 15.1847 86.0357 15.1847C87.3957 15.1847 88.5353 15.4365 89.4546 15.9402C90.3738 16.4439 91.1294 17.1617 91.7212 18.0935C92.3131 19.0128 92.7727 20.102 93.1001 21.3613C93.4401 22.6079 93.7045 23.9742 93.8934 25.4601V26.329C93.7045 27.7519 93.4212 29.0742 93.0434 30.2956C92.6657 31.5171 92.1683 32.5874 91.5512 33.5067C90.9342 34.4134 90.1661 35.1185 89.2468 35.6222C88.3401 36.1259 87.2572 36.3778 85.998 36.3778C84.7387 36.3778 83.5991 36.1196 82.5791 35.6033C81.5717 35.087 80.7091 34.363 79.9914 33.4311C79.2736 32.4993 78.7195 31.4038 78.3291 30.1445C77.9514 28.8853 77.7625 27.5127 77.7625 26.0268ZM83.2024 25.6301V26.0268C83.2024 26.8705 83.2843 27.6575 83.448 28.3879C83.6117 29.1182 83.8635 29.7667 84.2035 30.3334C84.5561 30.8875 84.9906 31.3219 85.5068 31.6367C86.0357 31.9389 86.6591 32.09 87.3768 32.09C88.3716 32.09 89.1838 31.8823 89.8135 31.4667C90.4431 31.0386 90.9153 30.453 91.2301 29.7101C91.5449 28.9671 91.7275 28.1108 91.7779 27.1412V24.6668C91.7527 23.8735 91.6457 23.162 91.4568 22.5324C91.2679 21.8902 91.0034 21.3424 90.6635 20.8891C90.3235 20.4357 89.8827 20.0831 89.3412 19.8313C88.7998 19.5794 88.1576 19.4535 87.4146 19.4535C86.6968 19.4535 86.0735 19.6172 85.5446 19.9446C85.0283 20.2594 84.5939 20.6939 84.2413 21.2479C83.9013 21.802 83.6432 22.4568 83.4669 23.2124C83.2906 23.9553 83.2024 24.7612 83.2024 25.6301ZM99.8056 25.989V25.5923C99.8056 24.0938 100.02 22.715 100.448 21.4557C100.876 20.1839 101.499 19.082 102.318 18.1502C103.136 17.2184 104.144 16.4943 105.34 15.978C106.536 15.4491 107.909 15.1847 109.458 15.1847C111.007 15.1847 112.385 15.4491 113.594 15.978C114.803 16.4943 115.817 17.2184 116.635 18.1502C117.466 19.082 118.096 20.1839 118.524 21.4557C118.952 22.715 119.166 24.0938 119.166 25.5923V25.989C119.166 27.4749 118.952 28.8538 118.524 30.1256C118.096 31.3849 117.466 32.4867 116.635 33.4311C115.817 34.363 114.809 35.087 113.613 35.6033C112.417 36.1196 111.044 36.3778 109.495 36.3778C107.947 36.3778 106.568 36.1196 105.359 35.6033C104.163 35.087 103.149 34.363 102.318 33.4311C101.499 32.4867 100.876 31.3849 100.448 30.1256C100.02 28.8538 99.8056 27.4749 99.8056 25.989ZM105.246 25.5923V25.989C105.246 26.8453 105.321 27.6449 105.472 28.3879C105.623 29.1308 105.863 29.7856 106.19 30.3523C106.53 30.9064 106.971 31.3408 107.512 31.6556C108.054 31.9704 108.715 32.1278 109.495 32.1278C110.251 32.1278 110.9 31.9704 111.441 31.6556C111.982 31.3408 112.417 30.9064 112.744 30.3523C113.072 29.7856 113.311 29.1308 113.462 28.3879C113.626 27.6449 113.708 26.8453 113.708 25.989V25.5923C113.708 24.7612 113.626 23.9805 113.462 23.2501C113.311 22.5072 113.065 21.8524 112.725 21.2857C112.398 20.7065 111.964 20.2531 111.422 19.9257C110.881 19.5983 110.226 19.4346 109.458 19.4346C108.69 19.4346 108.035 19.5983 107.493 19.9257C106.964 20.2531 106.53 20.7065 106.19 21.2857C105.863 21.8524 105.623 22.5072 105.472 23.2501C105.321 23.9805 105.246 24.7612 105.246 25.5923ZM127.95 19.7935V36H122.491V15.5624H127.61L127.95 19.7935ZM127.194 25.0635H125.683C125.683 23.6405 125.853 22.3309 126.193 21.1346C126.546 19.9257 127.056 18.8806 127.723 17.9991C128.403 17.105 129.24 16.4124 130.235 15.9213C131.23 15.4302 132.382 15.1847 133.692 15.1847C134.599 15.1847 135.43 15.3232 136.185 15.6002C136.941 15.8647 137.589 16.2865 138.131 16.8658C138.685 17.4324 139.113 18.1754 139.415 19.0946C139.717 20.0013 139.868 21.0905 139.868 22.3624V36H134.429V22.9668C134.429 22.035 134.303 21.3172 134.051 20.8135C133.799 20.3098 133.44 19.9572 132.974 19.7557C132.521 19.5543 131.973 19.4535 131.331 19.4535C130.626 19.4535 130.009 19.5983 129.48 19.888C128.963 20.1776 128.535 20.5805 128.195 21.0968C127.855 21.6005 127.603 22.1924 127.44 22.8724C127.276 23.5524 127.194 24.2827 127.194 25.0635ZM139.358 24.4401L137.413 24.6857C137.413 23.3509 137.577 22.1105 137.904 20.9646C138.244 19.8187 138.741 18.8113 139.396 17.9424C140.064 17.0735 140.888 16.3998 141.871 15.9213C142.853 15.4302 143.986 15.1847 145.271 15.1847C146.253 15.1847 147.147 15.3295 147.953 15.6191C148.759 15.8961 149.445 16.3432 150.012 16.9602C150.591 17.5646 151.032 18.358 151.334 19.3402C151.649 20.3224 151.806 21.525 151.806 22.9479V36H146.347V22.9479C146.347 22.0035 146.221 21.2857 145.97 20.7946C145.73 20.2909 145.378 19.9446 144.912 19.7557C144.458 19.5543 143.917 19.4535 143.287 19.4535C142.633 19.4535 142.06 19.5857 141.568 19.8502C141.077 20.102 140.668 20.4546 140.341 20.9079C140.013 21.3613 139.768 21.8902 139.604 22.4946C139.44 23.0864 139.358 23.735 139.358 24.4401ZM165.425 36.3778C163.838 36.3778 162.415 36.1259 161.156 35.6222C159.897 35.1059 158.826 34.3945 157.945 33.4878C157.076 32.5811 156.409 31.5297 155.943 30.3334C155.477 29.1245 155.244 27.8401 155.244 26.4801V25.7246C155.244 24.1757 155.464 22.759 155.905 21.4746C156.346 20.1902 156.975 19.0757 157.794 18.1313C158.625 17.1869 159.632 16.4628 160.816 15.9591C162 15.4428 163.335 15.1847 164.82 15.1847C166.269 15.1847 167.553 15.4239 168.674 15.9024C169.794 16.381 170.733 17.061 171.488 17.9424C172.256 18.8239 172.836 19.8817 173.226 21.1157C173.616 22.3372 173.811 23.6972 173.811 25.1957V27.4623H157.567V23.8357H168.466V23.4201C168.466 22.6646 168.327 21.9909 168.05 21.3991C167.786 20.7946 167.383 20.3161 166.842 19.9635C166.3 19.6109 165.607 19.4346 164.764 19.4346C164.046 19.4346 163.429 19.592 162.913 19.9068C162.396 20.2217 161.975 20.6624 161.647 21.2291C161.332 21.7957 161.093 22.4631 160.929 23.2313C160.778 23.9868 160.703 24.8179 160.703 25.7246V26.4801C160.703 27.2986 160.816 28.0542 161.043 28.7467C161.282 29.4393 161.616 30.0375 162.044 30.5412C162.485 31.0449 163.013 31.4352 163.63 31.7123C164.26 31.9893 164.972 32.1278 165.765 32.1278C166.747 32.1278 167.66 31.9389 168.504 31.5612C169.36 31.1708 170.097 30.5852 170.714 29.8045L173.358 32.6756C172.93 33.2926 172.344 33.8845 171.601 34.4511C170.871 35.0178 169.99 35.4837 168.957 35.8489C167.924 36.2015 166.747 36.3778 165.425 36.3778ZM187.959 30.3523C187.959 29.9619 187.846 29.6093 187.619 29.2945C187.392 28.9797 186.971 28.6901 186.353 28.4256C185.749 28.1486 184.874 27.8968 183.728 27.6701C182.695 27.4434 181.732 27.1601 180.838 26.8201C179.957 26.4675 179.188 26.0457 178.534 25.5546C177.891 25.0635 177.388 24.4842 177.022 23.8168C176.657 23.1368 176.475 22.3624 176.475 21.4935C176.475 20.6372 176.657 19.8313 177.022 19.0757C177.4 18.3202 177.935 17.6528 178.628 17.0735C179.333 16.4817 180.189 16.0221 181.197 15.6947C182.217 15.3547 183.363 15.1847 184.635 15.1847C186.41 15.1847 187.934 15.468 189.206 16.0347C190.49 16.6013 191.472 17.3821 192.152 18.3769C192.845 19.3591 193.191 20.4798 193.191 21.739H187.751C187.751 21.2102 187.638 20.7379 187.411 20.3224C187.197 19.8943 186.857 19.5606 186.391 19.3213C185.938 19.0694 185.346 18.9435 184.616 18.9435C184.011 18.9435 183.489 19.0506 183.048 19.2646C182.607 19.4661 182.267 19.7431 182.028 20.0957C181.801 20.4357 181.688 20.8135 181.688 21.2291C181.688 21.5439 181.751 21.8272 181.877 22.079C182.015 22.3183 182.236 22.5387 182.538 22.7401C182.84 22.9416 183.231 23.1305 183.709 23.3068C184.2 23.4705 184.805 23.6216 185.522 23.7601C186.996 24.0624 188.312 24.459 189.47 24.9501C190.629 25.4286 191.548 26.0834 192.228 26.9145C192.908 27.7331 193.248 28.8097 193.248 30.1445C193.248 31.0512 193.046 31.8823 192.643 32.6378C192.24 33.3934 191.661 34.0545 190.906 34.6211C190.15 35.1752 189.243 35.6096 188.186 35.9244C187.141 36.2267 185.963 36.3778 184.654 36.3778C182.752 36.3778 181.14 36.0378 179.818 35.3578C178.508 34.6778 177.514 33.8152 176.834 32.77C176.166 31.7123 175.833 30.6293 175.833 29.5212H180.989C181.014 30.2641 181.203 30.8623 181.556 31.3156C181.921 31.7689 182.381 32.0963 182.935 32.2978C183.501 32.4993 184.112 32.6 184.767 32.6C185.472 32.6 186.058 32.5056 186.523 32.3167C186.989 32.1152 187.342 31.8508 187.581 31.5234C187.833 31.1834 187.959 30.793 187.959 30.3523Z" fill="#2FB86F"/>
<path d="M229.721 32.8317V8.27645H235.199V37.2895H230.269L229.721 32.8317ZM216.801 27.3162V26.9196C216.801 25.3581 216.977 23.9415 217.33 22.6696C217.683 21.3852 218.199 20.2834 218.879 19.3641C219.559 18.4449 220.396 17.7334 221.391 17.2297C222.386 16.726 223.519 16.4741 224.791 16.4741C225.987 16.4741 227.033 16.726 227.927 17.2297C228.833 17.7334 229.601 18.4512 230.231 19.383C230.873 20.3022 231.39 21.3915 231.78 22.6507C232.17 23.8974 232.454 25.2637 232.63 26.7496V27.6185C232.454 29.0414 232.17 30.3636 231.78 31.5851C231.39 32.8065 230.873 33.8769 230.231 34.7962C229.601 35.7028 228.833 36.408 227.927 36.9117C227.02 37.4154 225.962 37.6672 224.753 37.6672C223.481 37.6672 222.348 37.4091 221.353 36.8928C220.371 36.3765 219.54 35.6524 218.86 34.7206C218.193 33.7888 217.683 32.6932 217.33 31.434C216.977 30.1747 216.801 28.8021 216.801 27.3162ZM222.241 26.9196V27.3162C222.241 28.1599 222.304 28.947 222.43 29.6773C222.569 30.4077 222.789 31.0562 223.091 31.6229C223.406 32.1769 223.809 32.6114 224.3 32.9262C224.804 33.2284 225.414 33.3795 226.132 33.3795C227.064 33.3795 227.832 33.1717 228.437 32.7562C229.041 32.328 229.501 31.7425 229.815 30.9995C230.143 30.2566 230.332 29.4003 230.382 28.4307V25.9563C230.344 25.1629 230.231 24.4515 230.042 23.8218C229.866 23.1796 229.601 22.6318 229.249 22.1785C228.909 21.7252 228.481 21.3726 227.964 21.1208C227.461 20.8689 226.863 20.743 226.17 20.743C225.465 20.743 224.86 20.9067 224.357 21.2341C223.853 21.5489 223.444 21.9833 223.129 22.5374C222.827 23.0915 222.6 23.7463 222.449 24.5018C222.31 25.2448 222.241 26.0507 222.241 26.9196ZM248.855 37.6672C247.269 37.6672 245.846 37.4154 244.586 36.9117C243.327 36.3954 242.257 35.6839 241.375 34.7773C240.506 33.8706 239.839 32.8191 239.373 31.6229C238.907 30.414 238.674 29.1296 238.674 27.7696V27.014C238.674 25.4651 238.895 24.0485 239.335 22.7641C239.776 21.4796 240.406 20.3652 241.224 19.4208C242.055 18.4763 243.063 17.7523 244.246 17.2486C245.43 16.7323 246.765 16.4741 248.251 16.4741C249.699 16.4741 250.983 16.7134 252.104 17.1919C253.225 17.6704 254.163 18.3504 254.919 19.2319C255.687 20.1134 256.266 21.1711 256.656 22.4052C257.047 23.6266 257.242 24.9866 257.242 26.4851V28.7518H240.998V25.1252H251.896V24.7096C251.896 23.9541 251.758 23.2804 251.481 22.6885C251.216 22.0841 250.813 21.6056 250.272 21.253C249.73 20.9004 249.038 20.7241 248.194 20.7241C247.476 20.7241 246.859 20.8815 246.343 21.1963C245.827 21.5111 245.405 21.9519 245.078 22.5185C244.763 23.0852 244.523 23.7526 244.36 24.5207C244.209 25.2763 244.133 26.1074 244.133 27.014V27.7696C244.133 28.5881 244.246 29.3436 244.473 30.0362C244.712 30.7288 245.046 31.3269 245.474 31.8306C245.915 32.3343 246.444 32.7247 247.061 33.0017C247.69 33.2788 248.402 33.4173 249.195 33.4173C250.177 33.4173 251.09 33.2284 251.934 32.8506C252.79 32.4603 253.527 31.8747 254.144 31.094L256.789 33.9651C256.36 34.5821 255.775 35.1739 255.032 35.7406C254.302 36.3072 253.42 36.7732 252.387 37.1383C251.355 37.4909 250.177 37.6672 248.855 37.6672ZM267.026 33.3228L271.559 16.8519H277.245L270.351 37.2895H266.913L267.026 33.3228ZM263.91 16.8519L268.462 33.3417L268.556 37.2895H265.1L258.205 16.8519H263.91Z" fill="#9366FF"/>
<ellipse cx="205.254" cy="29.93" rx="6.20634" ry="5.92845" transform="rotate(-0.161698 205.254 29.93)" fill="white"/>
</svg>
